<svg width="245" height="41" viewBox="0 0 245 41" fill="none" xmlns="http://www.w3.org/2000/svg">
<g clip-path="url(#clip0_124_92)">
<path d="M20.4243 37.9891C30.1251 37.9891 37.9891 30.1251 37.9891 20.4243C37.9891 10.7235 30.1251 2.8594 20.4243 2.8594C10.7235 2.8594 2.8594 10.7235 2.8594 20.4243C2.8594 30.1251 10.7235 37.9891 20.4243 37.9891Z" fill="white"/>
<path d="M40.8485 20.4243C40.8485 9.14463 31.7039 0 20.4243 0C9.14463 0 0 9.14463 0 20.4243H8.16971L12.2546 15.9309H28.594L32.6788 20.4243H40.8485ZM20.4243 6.94425L21.2412 7.84292H19.6073L20.4243 6.94425ZM18.7903 8.74159H22.0582L22.8752 9.64025H17.9734L18.7903 8.74159ZM16.7479 10.9883H24.1006L26.1431 13.2349H14.7055L16.7479 10.9883Z" fill="#CC0000"/>
<path d="M32.6788 20.4243L20.4243 33.9043L8.16971 20.4243H0C0 31.7039 9.14463 40.8485 20.4243 40.8485C31.7039 40.8485 40.8485 31.7039 40.8485 20.4243H32.6788Z" fill="#9A0000"/>
<path d="M54.801 22.4517L53.1821 24.4901V30.2987H49.0768V9.96977H53.1821V18.8353L54.4811 16.6431L58.265 9.96977H63.2907L57.4685 18.9061L63.3888 30.2987H58.5155L54.801 22.4517Z" fill="black"/>
<path d="M71.116 30.2974C71.0043 30.0645 70.8927 29.6737 70.781 29.125C70.073 30.0931 69.1144 30.5765 67.9053 30.5765C66.6961 30.5765 65.5891 30.1571 64.7572 29.3197C63.9239 28.4823 63.5072 27.3971 63.5072 26.0668C63.5072 24.4846 64.0124 23.2605 65.0214 22.3945C66.0317 21.5285 67.4859 21.0874 69.384 21.0683H70.5849V19.8538C70.5849 19.1743 70.4678 18.695 70.2364 18.4159C70.0035 18.1368 69.6645 17.9965 69.2165 17.9965C68.2293 17.9965 67.7364 18.5738 67.7364 19.7271H63.785C63.785 18.3315 64.3092 17.1795 65.3563 16.2713C66.4034 15.3631 67.7269 14.9097 69.3281 14.9097C70.9294 14.9097 72.2665 15.34 73.1747 16.2005C74.0829 17.0611 74.5363 18.2933 74.5363 19.8932V26.9995C74.5554 28.3026 74.7406 29.3224 75.0946 30.0577V30.2946H71.116V30.2974ZM68.7849 27.4775C69.2219 27.4775 69.595 27.3889 69.9014 27.2119C70.2091 27.0349 70.4365 26.8252 70.5849 26.5842V23.443H69.6359C68.966 23.443 68.4377 23.6568 68.051 24.0857C67.6643 24.5146 67.4709 25.0864 67.4709 25.8027C67.4709 26.9192 67.908 27.4775 68.7835 27.4775H68.7849Z" fill="black"/>
<path d="M76.5719 11.281C76.5719 10.6669 76.768 10.1645 77.1588 9.77369C77.5496 9.38291 78.0711 9.18684 78.7219 9.18684C79.3728 9.18684 79.8943 9.38291 80.2851 9.77369C80.6759 10.1645 80.8719 10.6669 80.8719 11.281C80.8719 11.8951 80.6786 12.3894 80.2932 12.7883C79.9066 13.1886 79.3837 13.3888 78.7219 13.3888C78.0602 13.3888 77.5373 13.1886 77.1506 12.7883C76.7639 12.388 76.5719 11.8856 76.5719 11.281ZM80.7181 30.2974H76.753V15.1902H80.7181V30.2974Z" fill="black"/>
<path d="M82.4582 22.2842C82.4582 19.8088 82.9048 17.9611 83.798 16.7411C84.6913 15.5224 85.944 14.9124 87.5534 14.9124C88.9218 14.9124 89.9784 15.4516 90.7232 16.5314L90.8771 15.1916H94.4377V30.2987C94.4377 32.2254 93.8972 33.6987 92.8188 34.7172C91.739 35.737 90.1895 36.2463 88.1688 36.2463C87.341 36.2463 86.4695 36.0815 85.5586 35.7506C84.6463 35.4198 83.9669 34.999 83.5203 34.4871L84.8465 31.7502C85.2182 32.141 85.703 32.4596 86.298 32.7061C86.893 32.9525 87.4567 33.0764 87.9877 33.0764C88.8714 33.0764 89.5073 32.8654 89.894 32.4405C90.2794 32.0171 90.4781 31.3349 90.4877 30.3954V29.0964C89.7333 30.0836 88.7516 30.5765 87.5411 30.5765C85.9303 30.5765 84.6858 29.9502 83.8062 28.6988C82.9266 27.4475 82.4773 25.6801 82.4582 23.4008V22.2842ZM86.4096 23.2755C86.4096 24.6712 86.5907 25.6883 86.9543 26.3269C87.3178 26.9641 87.8938 27.2827 88.6849 27.2827C89.476 27.2827 90.0955 26.99 90.4863 26.4031V19.1852C90.0765 18.5425 89.4855 18.2212 88.7135 18.2212C87.9415 18.2212 87.3519 18.5425 86.9747 19.1852C86.5975 19.8279 86.4096 20.86 86.4096 22.2842V23.2755Z" fill="black"/>
<path d="M96.4951 11.281C96.4951 10.6669 96.6912 10.1645 97.082 9.77369C97.4728 9.38291 97.9943 9.18684 98.6451 9.18684C99.296 9.18684 99.8175 9.38291 100.208 9.77369C100.599 10.1645 100.795 10.6669 100.795 11.281C100.795 11.8951 100.602 12.3894 100.216 12.7883C99.8298 13.1886 99.3069 13.3888 98.6451 13.3888C97.9834 13.3888 97.4605 13.1886 97.0738 12.7883C96.6871 12.388 96.4951 11.8856 96.4951 11.281ZM100.641 30.2974H96.6762V15.1902H100.641V30.2974Z" fill="black"/>
<path d="M106.02 22.2556C106.02 19.9654 106.559 18.1694 107.639 16.8664C108.718 15.5633 110.212 14.9111 112.121 14.9111C114.03 14.9111 115.551 15.5633 116.631 16.8664C117.711 18.1694 118.25 19.9749 118.25 22.2842V23.2469C118.25 25.5467 117.715 27.3427 116.644 28.6362C115.574 29.9297 114.075 30.5765 112.148 30.5765C110.222 30.5765 108.706 29.927 107.632 28.6294C106.556 27.3304 106.02 25.5276 106.02 23.2197V22.257V22.2556ZM109.985 23.2469C109.985 25.947 110.706 27.2964 112.148 27.2964C113.479 27.2964 114.196 26.1703 114.298 23.9182L114.312 22.257C114.312 20.8791 114.121 19.8578 113.74 19.192C113.359 18.5262 112.818 18.1939 112.121 18.1939C111.424 18.1939 110.927 18.5275 110.55 19.192C110.173 19.8578 109.985 20.8791 109.985 22.257V23.2483V23.2469Z" fill="black"/>
<path d="M123.606 15.1916L123.718 16.6853C124.611 15.5034 125.779 14.9124 127.223 14.9124C129.819 14.9124 131.155 16.7329 131.23 20.3712V30.2987H127.265V20.6653C127.265 19.8088 127.137 19.1879 126.881 18.8012C126.625 18.4145 126.176 18.2212 125.534 18.2212C124.818 18.2212 124.259 18.5888 123.86 19.3241V30.2987H119.895V15.1916H123.609H123.606Z" fill="black"/>
<path d="M143.196 22.8697H141.158V30.2974H137.052V9.96977H143.6C145.658 9.96977 147.247 10.5022 148.369 11.5683C149.491 12.6345 150.052 14.1486 150.052 16.1134C150.052 18.8121 149.07 20.702 147.105 21.7818L150.666 30.1026V30.2987H146.254L143.196 22.8711V22.8697ZM141.158 19.4493H143.489C144.307 19.4493 144.922 19.177 145.332 18.6324C145.742 18.0877 145.946 17.3593 145.946 16.447C145.946 14.4086 145.151 13.3888 143.559 13.3888H141.158V19.448V19.4493Z" fill="black"/>
<path d="M158.835 30.2974C158.724 30.0645 158.612 29.6737 158.501 29.125C157.792 30.0931 156.834 30.5765 155.625 30.5765C154.416 30.5765 153.309 30.1571 152.477 29.3197C151.643 28.4823 151.227 27.3971 151.227 26.0668C151.227 24.4846 151.732 23.2605 152.741 22.3945C153.751 21.5285 155.205 21.0874 157.103 21.0683H158.304V19.8538C158.304 19.1743 158.187 18.695 157.956 18.4159C157.723 18.1368 157.384 17.9965 156.936 17.9965C155.949 17.9965 155.456 18.5738 155.456 19.7271H151.505C151.505 18.3315 152.029 17.1795 153.076 16.2713C154.123 15.3631 155.446 14.9097 157.048 14.9097C158.649 14.9097 159.986 15.34 160.894 16.2005C161.802 17.0611 162.256 18.2933 162.256 19.8932V26.9995C162.275 28.3026 162.46 29.3224 162.814 30.0577V30.2946H158.835V30.2974ZM156.504 27.4775C156.941 27.4775 157.315 27.3889 157.621 27.2119C157.929 27.0349 158.156 26.8252 158.304 26.5842V23.443H157.355C156.685 23.443 156.157 23.6568 155.77 24.0857C155.384 24.5146 155.19 25.0864 155.19 25.8027C155.19 26.9192 155.627 27.4775 156.503 27.4775H156.504Z" fill="black"/>
<path d="M164.291 11.281C164.291 10.6669 164.488 10.1645 164.878 9.77369C165.269 9.38291 165.791 9.18684 166.441 9.18684C167.092 9.18684 167.614 9.38291 168.005 9.77369C168.395 10.1645 168.591 10.6669 168.591 11.281C168.591 11.8951 168.398 12.3894 168.013 12.7883C167.626 13.1886 167.103 13.3888 166.441 13.3888C165.78 13.3888 165.257 13.1886 164.87 12.7883C164.483 12.388 164.291 11.8856 164.291 11.281ZM168.438 30.2974H164.473V15.1902H168.438V30.2974Z" fill="black"/>
<path d="M174.719 30.2974H170.754V8.85188H174.719V30.2974Z" fill="black"/>
<path d="M183.558 26.2493C183.558 25.9143 183.398 25.6052 183.076 25.3207C182.755 25.0374 182.04 24.6535 180.933 24.1687C179.305 23.5083 178.185 22.8234 177.575 22.1168C176.965 21.4087 176.66 20.5305 176.66 19.4779C176.66 18.1558 177.137 17.0652 178.091 16.2046C179.046 15.3441 180.31 14.9138 181.882 14.9138C183.539 14.9138 184.866 15.3414 185.861 16.1978C186.856 17.0543 187.355 18.2035 187.355 19.6468H183.403C183.403 18.4186 182.891 17.8032 181.867 17.8032C181.448 17.8032 181.103 17.9339 180.834 18.1939C180.564 18.4554 180.429 18.8176 180.429 19.2832C180.429 19.6182 180.578 19.9137 180.876 20.1696C181.174 20.4256 181.877 20.7905 182.984 21.2657C184.595 21.8621 185.731 22.5252 186.397 23.2551C187.063 23.9863 187.395 24.9326 187.395 26.0968C187.395 27.4461 186.888 28.5313 185.873 29.3497C184.859 30.1694 183.527 30.5779 181.879 30.5779C180.771 30.5779 179.795 30.3614 178.948 29.9284C178.101 29.4954 177.438 28.8935 176.959 28.1201C176.479 27.3481 176.24 26.5148 176.24 25.6202H179.995C180.014 26.3092 180.175 26.8252 180.477 27.1697C180.779 27.5142 181.275 27.6858 181.964 27.6858C183.025 27.6858 183.556 27.2065 183.556 26.2479L183.558 26.2493Z" fill="black"/>
<path d="M204.503 30.2974H192.523V27.5047L198.024 20.5101C198.723 19.5419 199.236 18.6923 199.567 17.9625C199.896 17.2313 200.063 16.5314 200.063 15.8615C200.063 14.9587 199.906 14.2507 199.595 13.7387C199.284 13.2268 198.834 12.9708 198.247 12.9708C197.605 12.9708 197.096 13.269 196.718 13.864C196.341 14.4604 196.153 15.2978 196.153 16.3775H192.188C192.188 15.1303 192.447 13.9906 192.963 12.9572C193.479 11.9237 194.206 11.1217 195.142 10.5485C196.077 9.97657 197.136 9.68927 198.318 9.68927C200.133 9.68927 201.541 10.1903 202.542 11.1898C203.543 12.1906 204.043 13.6121 204.043 15.4557C204.043 16.6008 203.765 17.7623 203.212 18.9387C202.658 20.1165 201.656 21.5653 200.203 23.2878L197.593 27.0159H204.504V30.2974H204.503Z" fill="black"/>
<path d="M217.656 21.8935C217.656 24.7038 217.147 26.8552 216.127 28.3434C215.107 29.833 213.653 30.5779 211.764 30.5779C209.876 30.5779 208.449 29.8548 207.429 28.4061C206.41 26.9587 205.881 24.8849 205.844 22.1862V18.3464C205.844 15.5442 206.351 13.401 207.366 11.9169C208.381 10.4327 209.838 9.69064 211.736 9.69064C213.634 9.69064 215.091 10.4259 216.105 11.8965C217.12 13.367 217.636 15.4666 217.655 18.1926V21.8921L217.656 21.8935ZM213.691 17.7746C213.691 16.1733 213.533 14.9737 213.216 14.1717C212.899 13.3711 212.406 12.9708 211.736 12.9708C210.479 12.9708 209.828 14.4372 209.78 17.3688V22.4367C209.78 24.0748 209.941 25.2948 210.262 26.0954C210.584 26.896 211.083 27.2964 211.763 27.2964C212.406 27.2964 212.882 26.9219 213.194 26.173C213.506 25.4241 213.671 24.2763 213.69 22.7309V17.7746H213.691Z" fill="black"/>
<path d="M231.521 30.2974H219.542V27.5047L225.043 20.5101C225.741 19.5419 226.255 18.6923 226.585 17.9625C226.915 17.2313 227.081 16.5314 227.081 15.8615C227.081 14.9587 226.925 14.2507 226.614 13.7387C226.302 13.2268 225.853 12.9708 225.266 12.9708C224.623 12.9708 224.114 13.269 223.737 13.864C223.36 14.4604 223.172 15.2978 223.172 16.3775H219.207C219.207 15.1303 219.466 13.9906 219.982 12.9572C220.498 11.9237 221.225 11.1217 222.16 10.5485C223.096 9.97657 224.155 9.68927 225.337 9.68927C227.152 9.68927 228.56 10.1903 229.561 11.1898C230.561 12.1906 231.061 13.6121 231.061 15.4557C231.061 16.6008 230.783 17.7623 230.231 18.9387C229.676 20.1165 228.674 21.5653 227.221 23.2878L224.611 27.0159H231.523V30.2974H231.521Z" fill="black"/>
<path d="M236.791 18.3328H238.704C239.43 18.3328 239.962 18.0796 240.302 17.5717C240.643 17.0652 240.812 16.3871 240.812 15.5401C240.812 14.6932 240.637 14.0996 240.289 13.6489C239.94 13.1968 239.472 12.9721 238.885 12.9721C238.336 12.9721 237.887 13.1859 237.537 13.6148C237.188 14.0437 237.014 14.5829 237.014 15.2338H233.063C233.063 14.1731 233.306 13.2213 233.795 12.3785C234.284 11.5356 234.968 10.878 235.847 10.4028C236.727 9.92756 237.702 9.69064 238.772 9.69064C240.643 9.69064 242.109 10.2067 243.17 11.2402C244.231 12.2736 244.762 13.6883 244.762 15.4843C244.762 16.4061 244.522 17.2599 244.043 18.0469C243.563 18.8339 242.933 19.4357 242.151 19.8551C243.11 20.265 243.825 20.8791 244.295 21.6987C244.764 22.5184 245 23.4852 245 24.6031C245 26.4086 244.425 27.856 243.276 28.9453C242.127 30.0346 240.617 30.5792 238.746 30.5792C237.006 30.5792 235.593 30.0414 234.509 28.9671C233.425 27.8914 232.882 26.4794 232.882 24.7297H236.833C236.833 25.4554 237.024 26.0655 237.405 26.5584C237.786 27.0513 238.271 27.2977 238.856 27.2977C239.536 27.2977 240.074 27.0458 240.469 26.5434C240.865 26.0409 241.062 25.371 241.062 24.5323C241.062 22.5307 240.285 21.5258 238.731 21.5163H236.791V18.3328Z" fill="black"/>
</g>
<defs>
<clipPath id="clip0_124_92">
<rect width="245" height="40.8485" fill="white"/>
</clipPath>
</defs>
</svg>